<?xml version="1.0" encoding="UTF-8" standalone="no"?>
<svg width="100px" height="98px" viewBox="0 0 100 98" version="1.1" xmlns="http://www.w3.org/2000/svg" xmlns:xlink="http://www.w3.org/1999/xlink">
    <!-- Generator: Sketch 42 (36781) - http://www.bohemiancoding.com/sketch -->
    <title>Slice 1</title>
    <desc>Created with Sketch.</desc>
    <defs></defs>
    <g id="Page-1" stroke="none" stroke-width="1" fill="none" fill-rule="evenodd">
        <path d="M36.065595,80.4027158 C35.4820094,80.5388858 35.0864679,80.9279429 35.1513108,81.3753586 C35.2161537,81.7709 35.7413808,82.0302714 36.3249664,81.9005857 C36.9085521,81.7709 37.2976092,81.3753586 37.2392507,80.9927858 C37.1679235,80.5972444 36.6491807,80.337873 36.065595,80.4027158 M32.3565838,80.9279429 C31.7665139,80.9279429 31.3126139,81.2521572 31.3126139,81.6412143 C31.3126139,82.1015986 31.7665139,82.4258128 32.4214267,82.36097 C33.0050124,82.36097 33.4589123,82.0302714 33.4589123,81.6412143 C33.4589123,81.1873143 32.9401695,80.8566158 32.3565838,80.9279429 M28.5114026,80.2730301 C27.9926598,80.1433444 27.4090741,80.337873 27.2793884,80.7334144 C27.1497027,81.1224715 27.5387598,81.5763715 28.1223455,81.7060572 C28.6410883,81.9005857 29.2311583,81.7060572 29.360844,81.3170001 C29.4905297,80.9279429 29.0949883,80.474043 28.5114026,80.2730301 M25.3859771,78.4509459 C24.9320771,77.997046 24.3420071,77.9322031 24.0826357,78.2564174 C23.7584215,78.5157888 23.8945915,79.1058588 24.3420071,79.4884316 C24.8023914,79.9488158 25.3859771,80.0136587 25.6518328,79.6894444 C25.9112042,79.430073 25.7815185,78.8464873 25.3859771,78.4509459 M22.9154644,75.7145775 C22.656093,75.2606775 22.1308658,75.066149 21.8066516,75.3255204 C21.4824373,75.520049 21.4824373,76.0452761 21.8066516,76.499176 C22.1308658,76.9595603 22.656093,77.1476046 22.9154644,76.9595603 C23.2396786,76.6937046 23.2396786,76.1749618 22.9154644,75.7145775 M20.8275245,72.9782091 C20.5033102,72.6604791 20.0494103,72.5243091 19.7900388,72.7901648 C19.5306674,72.9782091 19.589026,73.4385934 19.9197245,73.8276505 C20.2439388,74.1518648 20.6978388,74.2880347 20.9572102,74.0286633 C21.2165816,73.8276505 21.158223,73.3737505 20.8275245,72.9782091 M18.4866975,71.0329235 C18.0976404,70.8967535 17.7734261,70.9680807 17.6437404,71.1561249 C17.5075704,71.4219806 17.702099,71.7461949 18.0976404,71.9407235 C18.4218546,72.1417363 18.8109118,72.0704092 18.9405975,71.8110377 C19.0702832,71.5516663 18.8757546,71.2274521 18.4866975,71.0329235 M99.9941641,50.0043862 C99.9941641,72.0704092 85.6703778,90.8164781 65.8154961,97.4628705 C63.2801406,97.9167705 62.3658563,96.3540577 62.3658563,95.0572007 C62.3658563,93.4296451 62.4306992,88.0217511 62.4306992,81.3170001 C62.4306992,76.6288618 60.8679864,73.6331219 59.0459023,72.0704092 C70.1794202,70.8319107 81.8965238,66.6041566 81.8965238,47.3977035 C81.8965238,41.9249666 79.9447539,37.502684 76.7544855,33.9882014 C77.2732283,32.68486 78.9656268,27.6011803 76.2357427,20.7019007 C72.0663472,19.4050437 62.4955421,25.8504233 62.4955421,25.8504233 C58.5271594,24.7416105 54.2280783,24.1515405 49.9938399,24.1515405 C45.7660859,24.1515405 41.4670047,24.7416105 37.4986221,25.8504233 C37.4986221,25.8504233 27.9278169,19.4050437 23.7584215,20.7019007 C21.0285373,27.6011803 22.7144515,32.68486 23.2396786,33.9882014 C20.0494103,37.502684 18.0976404,41.9249666 18.0976404,47.3977035 C18.0976404,66.5328295 29.7499011,70.8319107 40.883419,72.0704092 C39.450392,73.3737505 38.1470506,75.5913761 37.6931506,78.7751602 C34.8270965,80.0785016 27.5387598,82.2896429 23.1748358,74.6057647 C20.4384674,69.8592679 15.4909577,69.4637265 15.4909577,69.4637265 C10.6082908,69.4053679 15.1667434,72.5243091 15.1667434,72.5243091 C18.4218546,74.0286633 20.6978388,79.8191301 20.6978388,79.8191301 C23.6287358,88.7350225 37.5634649,85.7392826 37.5634649,85.7392826 C37.5634649,89.9086781 37.6283078,93.8122179 37.6283078,95.0572007 C37.6283078,96.3540577 36.7140236,97.9167705 34.1721837,97.4628705 C14.317302,90.8164781 0,72.0704092 0,50.0043862 C0,22.4007835 22.3967215,0.00406195551 49.9938399,0.00406195551 C77.6039269,0.00406195551 99.9941641,22.4007835 99.9941641,50.0043862" fill="#3399FF"></path>
    </g>
</svg>