<?xml version="1.0" encoding="UTF-8" standalone="no"?>
<svg width="100px" height="87px" viewBox="0 0 100 87" version="1.1" xmlns="http://www.w3.org/2000/svg" xmlns:xlink="http://www.w3.org/1999/xlink">
    <!-- Generator: Sketch 42 (36781) - http://www.bohemiancoding.com/sketch -->
    <title>Slice 1</title>
    <desc>Created with Sketch.</desc>
    <defs></defs>
    <g id="Page-1" stroke="none" stroke-width="1" fill="none" fill-rule="evenodd">
        <g id="Fill-1" fill="#FF1D25">
            <path d="M87.2218055,52.2279865 L52.4568642,85.7051057 C51.787947,86.3802745 50.8939735,86.7116074 50,86.7116074 C49.1060265,86.7116074 48.212053,86.3802745 47.5431358,85.7051057 L12.7219305,52.1092068 C12.2780695,51.7216099 0,40.506306 0,27.1092068 C0,10.7613698 9.9899975,0.996428571 26.6754189,0.996428571 C36.4403601,0.996428571 45.5926482,8.69835405 50,13.0494418 C54.4073518,8.69835405 63.5596399,0.996428571 73.3245811,0.996428571 C90.0100025,0.996428571 100,10.7613698 100,27.1092068 C100,40.506306 87.7219305,51.7216099 87.2218055,52.2279865 Z M73.3245811,8.14196496 C65.0100025,8.14196496 55.6326582,17.1254608 52.7381845,20.5825751 C51.3940985,22.2017299 48.6059015,22.2017299 47.268067,20.5825751 C44.3610903,17.1254608 34.9899975,8.14196496 26.6754189,8.14196496 C17.7419355,8.14196496 7.14553638,11.430287 7.14553638,27.1092068 C7.14553638,37.3242605 17.4668667,46.814133 17.5793948,46.9204096 L50,78.1719725 L82.3643411,46.9766736 C82.5331333,46.814133 92.8607152,37.3242605 92.8607152,27.1092068 C92.8607152,11.430287 82.2580645,8.14196496 73.3245811,8.14196496 Z"></path>
        </g>
    </g>
</svg>