<?xml version="1.0" encoding="UTF-8" standalone="no"?>
<svg width="100px" height="100px" viewBox="0 0 100 100" version="1.1" xmlns="http://www.w3.org/2000/svg" xmlns:xlink="http://www.w3.org/1999/xlink">
    <!-- Generator: Sketch 42 (36781) - http://www.bohemiancoding.com/sketch -->
    <title>Slice 1</title>
    <desc>Created with Sketch.</desc>
    <defs></defs>
    <g id="Page-1" stroke="none" stroke-width="1" fill="none" fill-rule="evenodd">
        <path d="M24.75,31.25 C24.75,34.7 25.4083333,37.9375 26.7291667,40.9666667 C28.0458333,43.9958333 29.8375,46.6375 32.1,48.9 C34.3625,51.1625 37.0041667,52.9541667 40.0333333,54.2708333 C43.0625,55.5916667 46.3,56.25 49.75,56.25 C53.2,56.25 56.4375,55.5916667 59.4666667,54.2708333 C62.4958333,52.9541667 65.1375,51.1625 67.4,48.9 C69.6625,46.6375 71.4541667,43.9958333 72.7708333,40.9666667 C74.0916667,37.9375 74.75,34.7 74.75,31.25 C74.75,27.8 74.0916667,24.5625 72.7708333,21.5333333 C71.4541667,18.5041667 69.6625,15.8625 67.4,13.6 C65.1375,11.3375 62.4958333,9.54583333 59.4666667,8.22916667 C56.4375,6.90833333 53.2,6.25 49.75,6.25 C46.3,6.25 43.0625,6.90833333 40.0333333,8.22916667 C37.0041667,9.54583333 34.3625,11.3375 32.1,13.6 C29.8375,15.8625 28.0458333,18.5041667 26.7291667,21.5333333 C25.4083333,24.5625 24.75,27.8 24.75,31.25 M64.6916667,58.7416667 C69.1166667,60.2708333 73.1125,62.4125 76.6791667,65.1625 C80.2416667,67.9125 83.2708333,71.0958333 85.7625,74.7083333 C88.25,78.3208333 90.1625,82.275 91.5,86.5708333 C92.8333333,90.8708333 93.5,95.3458333 93.5,100 L87.25,100 C87.25,94.6625 86.2958333,89.7041667 84.3916667,85.1333333 C82.4875,80.5583333 79.8625,76.5958333 76.5083333,73.2416667 C73.1541667,69.8875 69.1916667,67.2625 64.6166667,65.3583333 C60.0458333,63.4541667 55.0875,62.5 49.75,62.5 C46.2666667,62.5 42.9125,62.9375 39.6916667,63.8166667 C36.4708333,64.6958333 33.4666667,65.9416667 30.6833333,67.5541667 C27.9,69.1666667 25.375,71.1 23.1125,73.3625 C20.85,75.625 18.9166667,78.15 17.3041667,80.9333333 C15.6916667,83.7166667 14.4458333,86.7208333 13.5666667,89.9416667 C12.6875,93.1625 12.25,96.5166667 12.25,100 L6,100 C6,95.3125 6.68333333,90.8291667 8.05,86.5458333 C9.41666667,82.2666667 11.3541667,78.3375 13.8625,74.7541667 C16.3666667,71.175 19.4041667,68.0166667 22.9666667,65.2833333 C26.5333333,62.55 30.5125,60.3833333 34.9083333,58.7875 C32.3666667,57.4208333 30.0875,55.7625 28.0708333,53.8083333 C26.05,51.8541667 24.3333333,49.6833333 22.9208333,47.2916667 C21.5041667,44.8958333 20.4125,42.3416667 19.6458333,39.625 C18.8833333,36.9041667 18.5,34.1125 18.5,31.25 C18.5,26.9208333 19.3125,22.8583333 20.9416667,19.0666667 C22.5708333,15.275 24.8,11.9625 27.6291667,9.12916667 C30.4625,6.3 33.775,4.07083333 37.5666667,2.44166667 C41.3583333,0.8125 45.4208333,0 49.75,0 C54.0791667,0 58.1416667,0.8125 61.9333333,2.44166667 C65.725,4.07083333 69.0375,6.3 71.8708333,9.12916667 C74.7,11.9625 76.9291667,15.275 78.5583333,19.0666667 C80.1875,22.8583333 81,26.9208333 81,31.25 C81,34.1125 80.6166667,36.8958333 79.8541667,39.6 C79.0875,42.3 77.9958333,44.8416667 76.5791667,47.2166667 C75.1666667,49.5916667 73.4541667,51.7666667 71.4541667,53.7333333 C69.4541667,55.7041667 67.2,57.375 64.6916667,58.7416667" fill="#FCB713"></path>
    </g>
</svg>