<svg xmlns="http://www.w3.org/2000/svg" viewBox="0 0 2048 2048">
    <title>E167_LinkLegacy</title>
    <path d="M1536,768V896c203,0,384,89,384,320,0,175-145,320-320,320H1088c-175,0-320-145-320-320,0-231,181-320,384-320V768h-64c-247,0-448,201-448,448s201,448,448,448h512c247,0,448-201,448-448s-201-448-448-448ZM896,1280V1152c203,0,384-89,384-320,0-175-145-320-320.00006-320h-512c-174.99994,0-320,145-320,320,0,231,181.00006,320,384,320v128h-64C201,1280,0,1079,0,832S201,384,447.99994,384h512C1207,384,1408,585,1408,832s-201,448-448.00006,448Z"/>
</svg>
