<svg width="20" height="20" viewBox="0 0 20 20" fill="none" xmlns="http://www.w3.org/2000/svg">
<path fill-rule="evenodd" clip-rule="evenodd" d="M15.9766 6.76758C16.3997 6.98242 16.7822 7.24772 17.124 7.56348C17.4658 7.87923 17.7572 8.23079 17.998 8.61816C18.2389 9.00554 18.4245 9.4222 18.5547 9.86816C18.6849 10.3141 18.75 10.7747 18.75 11.25H17.5C17.5 10.7357 17.4007 10.2507 17.2021 9.79492C17.0036 9.33919 16.735 8.94206 16.3965 8.60352C16.0579 8.26497 15.6608 7.99642 15.2051 7.79785C14.7493 7.59928 14.2643 7.5 13.75 7.5C13.2357 7.5 12.7507 7.59928 12.2949 7.79785C11.8392 7.99642 11.4421 8.26497 11.1035 8.60352C10.765 8.94206 10.4964 9.33919 10.2979 9.79492C10.0993 10.2507 10 10.7357 10 11.25C10 11.8425 9.86491 12.4056 9.59473 12.9395C9.32454 13.4733 8.95183 13.916 8.47656 14.2676C8.89974 14.4824 9.28222 14.7477 9.62402 15.0635C9.96582 15.3792 10.2572 15.7308 10.498 16.1182C10.7389 16.5055 10.9245 16.9222 11.0547 17.3682C11.1849 17.8141 11.25 18.2747 11.25 18.75H10C10 18.2357 9.90072 17.7507 9.70215 17.2949C9.50358 16.8392 9.23503 16.4421 8.89648 16.1035C8.55794 15.765 8.16081 15.4964 7.70508 15.2979C7.24935 15.0993 6.76433 15 6.25 15C5.73567 15 5.25065 15.0993 4.79492 15.2979C4.33919 15.4964 3.94206 15.765 3.60352 16.1035C3.26497 16.4421 2.99642 16.8392 2.79785 17.2949C2.59928 17.7507 2.5 18.2357 2.5 18.75H1.25C1.25 18.2747 1.3151 17.8141 1.44531 17.3682C1.57552 16.9222 1.76107 16.5055 2.00195 16.1182C2.24284 15.7308 2.53418 15.3792 2.87598 15.0635C3.21778 14.7477 3.60026 14.4824 4.02344 14.2676C3.54817 13.916 3.17546 13.4733 2.90527 12.9395C2.63509 12.4056 2.5 11.8425 2.5 11.25C2.5 10.7357 2.59928 10.2507 2.79785 9.79492C2.99642 9.33919 3.26497 8.94206 3.60352 8.60352C3.94206 8.26497 4.33919 7.99642 4.79492 7.79785C5.25065 7.59928 5.73567 7.5 6.25 7.5C6.84245 7.5 7.4056 7.63509 7.93945 7.90527C8.47331 8.17546 8.91601 8.54817 9.26758 9.02344C9.51498 8.53515 9.83073 8.09896 10.2148 7.71484C10.599 7.33073 11.0352 7.01498 11.5234 6.76758C11.0482 6.41601 10.6755 5.97331 10.4053 5.43945C10.1351 4.9056 10 4.34245 10 3.75C10 3.23567 10.0993 2.75065 10.2979 2.29492C10.4964 1.83919 10.765 1.44206 11.1035 1.10352C11.4421 0.764972 11.8392 0.49642 12.2949 0.297852C12.7507 0.0992829 13.2357 0 13.75 0C14.2643 0 14.7493 0.0992829 15.2051 0.297852C15.6608 0.49642 16.0579 0.764972 16.3965 1.10352C16.735 1.44206 17.0036 1.83919 17.2021 2.29492C17.4007 2.75065 17.5 3.23567 17.5 3.75C17.5 4.34245 17.3649 4.9056 17.0947 5.43945C16.8245 5.97331 16.4518 6.41601 15.9766 6.76758ZM6.25 13.75C6.58854 13.75 6.91081 13.6833 7.2168 13.5498C7.52279 13.4163 7.78808 13.2373 8.0127 13.0127C8.23731 12.7881 8.41634 12.5244 8.5498 12.2217C8.68327 11.9189 8.75 11.5951 8.75 11.25C8.75 10.9115 8.68327 10.5892 8.5498 10.2832C8.41634 9.97721 8.23731 9.71192 8.0127 9.4873C7.78808 9.26269 7.52279 9.08366 7.2168 8.9502C6.91081 8.81673 6.58854 8.75 6.25 8.75C5.90495 8.75 5.58106 8.81673 5.27832 8.9502C4.97558 9.08366 4.71192 9.26269 4.4873 9.4873C4.26269 9.71192 4.08366 9.97721 3.9502 10.2832C3.81673 10.5892 3.75 10.9115 3.75 11.25C3.75 11.5951 3.81673 11.9189 3.9502 12.2217C4.08366 12.5244 4.26269 12.7881 4.4873 13.0127C4.71192 13.2373 4.97558 13.4163 5.27832 13.5498C5.58106 13.6833 5.90495 13.75 6.25 13.75ZM11.25 3.75C11.25 4.09505 11.3167 4.41894 11.4502 4.72168C11.5837 5.02442 11.7627 5.28808 11.9873 5.5127C12.2119 5.73731 12.4756 5.91634 12.7783 6.0498C13.0811 6.18327 13.4049 6.25 13.75 6.25C14.0885 6.25 14.4108 6.18327 14.7168 6.0498C15.0228 5.91634 15.2881 5.73731 15.5127 5.5127C15.7373 5.28808 15.9163 5.02442 16.0498 4.72168C16.1833 4.41894 16.25 4.09505 16.25 3.75C16.25 3.41146 16.1833 3.08919 16.0498 2.7832C15.9163 2.47721 15.7373 2.21192 15.5127 1.9873C15.2881 1.76269 15.0228 1.58366 14.7168 1.4502C14.4108 1.31673 14.0885 1.25 13.75 1.25C13.4049 1.25 13.0811 1.31673 12.7783 1.4502C12.4756 1.58366 12.2119 1.76269 11.9873 1.9873C11.7627 2.21192 11.5837 2.47721 11.4502 2.7832C11.3167 3.08919 11.25 3.41146 11.25 3.75Z" fill="#B8B8B8"/>
</svg>
