<svg width="20" height="20" viewBox="0 0 20 20" fill="none" xmlns="http://www.w3.org/2000/svg">
<path fill-rule="evenodd" clip-rule="evenodd" d="M17.207 15.5273C17.6367 15.7357 18.0225 15.9977 18.3643 16.3135C18.7061 16.6292 18.999 16.9808 19.2432 17.3682C19.4873 17.7555 19.6745 18.1722 19.8047 18.6182C19.9349 19.0641 20 19.5247 20 20H18.75C18.75 19.4857 18.6507 19.0007 18.4521 18.5449C18.2536 18.0892 17.985 17.6921 17.6465 17.3535C17.3079 17.015 16.9108 16.7464 16.4551 16.5479C15.9993 16.3493 15.5143 16.25 15 16.25C14.4857 16.25 14.0007 16.3493 13.5449 16.5479C13.0892 16.7464 12.6921 17.015 12.3535 17.3535C12.015 17.6921 11.7464 18.0892 11.5479 18.5449C11.3493 19.0007 11.25 19.4857 11.25 20H10C10 19.5247 10.0651 19.0641 10.1953 18.6182C10.3255 18.1722 10.5127 17.7555 10.7568 17.3682C11.001 16.9808 11.2939 16.6292 11.6357 16.3135C11.9775 15.9977 12.3633 15.7357 12.793 15.5273C12.3047 15.1758 11.9255 14.7347 11.6553 14.2041C11.3851 13.6735 11.25 13.1055 11.25 12.5C11.25 11.9857 11.3477 11.5007 11.543 11.0449C11.7383 10.5892 12.0068 10.1904 12.3486 9.84863C12.6904 9.50683 13.0876 9.23828 13.54 9.04297C13.9925 8.84766 14.4792 8.75 15 8.75C15.5143 8.75 15.9993 8.84766 16.4551 9.04297C16.9108 9.23828 17.3096 9.50683 17.6514 9.84863C17.9932 10.1904 18.2617 10.5892 18.457 11.0449C18.6523 11.5007 18.75 11.9857 18.75 12.5C18.75 13.1055 18.6149 13.6735 18.3447 14.2041C18.0745 14.7347 17.6953 15.1758 17.207 15.5273ZM15 15C15.3451 15 15.6689 14.9349 15.9717 14.8047C16.2744 14.6745 16.5397 14.4954 16.7676 14.2676C16.9954 14.0397 17.1745 13.7744 17.3047 13.4717C17.4349 13.1689 17.5 12.8451 17.5 12.5C17.5 12.1549 17.4349 11.8311 17.3047 11.5283C17.1745 11.2256 16.9954 10.9603 16.7676 10.7324C16.5397 10.5046 16.2744 10.3255 15.9717 10.1953C15.6689 10.0651 15.3451 10 15 10C14.6549 10 14.3311 10.0651 14.0283 10.1953C13.7256 10.3255 13.4603 10.5046 13.2324 10.7324C13.0046 10.9603 12.8255 11.2256 12.6953 11.5283C12.5651 11.8311 12.5 12.1549 12.5 12.5C12.5 12.8451 12.5651 13.1689 12.6953 13.4717C12.8255 13.7744 13.0046 14.0397 13.2324 14.2676C13.4603 14.4954 13.7256 14.6745 14.0283 14.8047C14.3311 14.9349 14.6549 15 15 15ZM20 1.25V11.25C20 10.9375 19.9707 10.6641 19.9121 10.4297C19.8535 10.1953 19.7705 9.97721 19.6631 9.77539C19.5557 9.57357 19.4255 9.37826 19.2725 9.18945C19.1195 9.00065 18.9453 8.79557 18.75 8.57422V2.5H1.25V13.75H3.75V16.3574L6.35742 13.75H10.166C10.2181 13.9714 10.2881 14.1862 10.376 14.3945C10.4639 14.6029 10.5632 14.8047 10.6738 15H6.875L2.5 19.375V15H0V1.25H20Z" fill="#333333"/>
</svg>
