<svg width="20" height="20" viewBox="0 0 20 20" fill="none" xmlns="http://www.w3.org/2000/svg">
<path fill-rule="evenodd" clip-rule="evenodd" d="M13.75 15L15 13.75V17.5H0V5H1.25V16.25H13.75V15ZM12.5 10C11.6667 10 10.8512 10.083 10.0537 10.249C9.25618 10.415 8.48633 10.6592 7.74414 10.9814C7.00195 11.3037 6.29395 11.6976 5.62012 12.1631C4.94629 12.6286 4.32292 13.1575 3.75 13.75V12.5C3.75 11.6927 3.85417 10.9163 4.0625 10.1709C4.27083 9.42545 4.56543 8.72884 4.94629 8.08105C5.32715 7.43326 5.78287 6.84408 6.31348 6.31348C6.84408 5.78287 7.43326 5.32715 8.08105 4.94629C8.72884 4.56543 9.42545 4.27083 10.1709 4.0625C10.9163 3.85417 11.6927 3.75 12.5 3.75V0L19.375 6.875L12.5 13.75V10ZM13.75 5C13.3529 5 12.9818 5.00163 12.6367 5.00488C12.2917 5.00814 11.9548 5.02604 11.626 5.05859C11.2972 5.09115 10.9668 5.14811 10.6348 5.22949C10.3027 5.31087 9.95117 5.42969 9.58008 5.58594C9.01367 5.82031 8.48796 6.11979 8.00293 6.48438C7.5179 6.84896 7.08496 7.264 6.7041 7.72949C6.32324 8.19499 6.00098 8.69954 5.7373 9.24316C5.47363 9.78679 5.27995 10.3581 5.15625 10.957C6.25001 10.2279 7.41861 9.67774 8.66211 9.30664C9.90561 8.93555 11.1849 8.75 12.5 8.75H13.75V10.7324L17.6074 6.875L13.75 3.01758V5Z" fill="#B8B8B8"/>
</svg>
