<svg width="140" height="140" viewBox="0 0 140 140" fill="none" xmlns="http://www.w3.org/2000/svg">
<mask id="mask0" mask-type="alpha" maskUnits="userSpaceOnUse" x="17" y="17" width="106" height="106">
<path fill-rule="evenodd" clip-rule="evenodd" d="M93.0667 122.559C94.4946 122.887 96.0256 122.739 97.4092 122.074L119.246 111.573C121.541 110.47 123 108.149 123 105.603V34.3982C123 31.8521 121.541 29.5312 119.246 28.4277L97.4092 17.9263C95.8287 17.1662 94.0558 17.082 92.464 17.6102C91.5089 17.9271 90.619 18.4644 89.8749 19.2085L54.6714 58.1459L34.1146 41.2918L32.3139 39.7484C31.2064 38.7993 29.7138 38.4663 28.3272 38.8274C28.1291 38.879 27.9332 38.9447 27.7408 39.0249L19.718 42.3677C18.1751 43.0107 17.1362 44.4643 17.0124 46.1126C17.0042 46.2225 17 46.3332 17 46.4447V93.5557C17 93.6672 17.0042 93.7779 17.0124 93.8878C17.1362 95.5362 18.175 96.9897 19.7179 97.6326L27.7408 100.976C27.9331 101.056 28.1291 101.121 28.3272 101.173C29.7139 101.534 31.2064 101.201 32.3139 100.252L34.1146 98.7085L54.6713 81.8545L89.8749 120.792C90.7736 121.69 91.8848 122.288 93.0667 122.559ZM96.4999 47.5602L69.13 70.0002L96.4999 92.4402V47.5602ZM30.25 54.843L43.9537 70.0002L30.25 85.1574V54.843Z" fill="white"/>
</mask>
<g mask="url(#mask0)">
<path d="M32.3139 100.252C31.0482 101.337 29.2796 101.617 27.7408 100.976L19.7179 97.6332C18.0721 96.9474 17 95.3393 17 93.5563V46.4452C17 44.6621 18.0721 43.054 19.7179 42.3682L27.7408 39.0254C29.2796 38.3842 31.0482 38.664 32.3139 39.7489L34.1146 41.2923C32.4969 40.1369 30.25 41.2932 30.25 43.2811V96.7202C30.25 98.7081 32.4969 99.8645 34.1146 98.709L32.3139 100.252Z" fill="#52218A"/>
<g filter="url(#filter0_d)">
<path d="M19.7179 97.6317C18.0721 96.9459 17 95.3378 17 93.5548V93.1867C17 95.5217 19.8771 96.6295 21.443 94.8974L89.8749 19.2075C91.859 17.2235 94.8802 16.7101 97.4083 17.9273L119.249 28.4432C121.542 29.5473 123 31.8673 123 34.4123V34.6659C123 31.1372 118.898 29.1958 116.169 31.4331L34.1146 98.7075L32.3139 100.251C31.0482 101.336 29.2795 101.616 27.7408 100.975L19.7179 97.6317Z" fill="#6C33AF"/>
</g>
<g filter="url(#filter1_d)">
<path d="M19.7179 42.3682C18.0721 43.054 17 44.6622 17 46.4452V46.8132C17 44.4782 19.8771 43.3705 21.443 45.1025L89.8749 120.792C91.859 122.776 94.8802 123.29 97.4083 122.073L119.249 111.557C121.542 110.453 123 108.133 123 105.588V105.334C123 108.863 118.898 110.804 116.169 108.567L34.1146 41.2924L32.3139 39.7489C31.0482 38.664 29.2796 38.3842 27.7408 39.0254L19.7179 42.3682Z" fill="#854CC7"/>
</g>
<g filter="url(#filter2_d)">
<path d="M97.4093 122.074C94.8804 123.29 91.8592 122.776 89.875 120.792C92.3198 123.237 96.5 121.505 96.5 118.048V21.9527C96.5 18.4952 92.3198 16.7637 89.875 19.2085C91.8592 17.2243 94.8804 16.7101 97.4093 17.9263L119.246 28.4277C121.541 29.5312 123 31.8521 123 34.3982V105.603C123 108.149 121.541 110.47 119.246 111.573L97.4093 122.074Z" fill="#B179F1"/>
</g>
<g style="mix-blend-mode:overlay" opacity="0.25">
<path fill-rule="evenodd" clip-rule="evenodd" d="M93.0667 122.559C94.4946 122.887 96.0256 122.739 97.4092 122.074L119.246 111.573C121.541 110.47 123 108.149 123 105.603V34.3982C123 31.8521 121.541 29.5312 119.246 28.4277L97.4092 17.9263C95.8287 17.1662 94.0558 17.082 92.464 17.6102C91.5089 17.9271 90.619 18.4644 89.8749 19.2085L54.6714 58.1459L34.1146 41.2918L32.3139 39.7484C31.2064 38.7993 29.7138 38.4663 28.3272 38.8274C28.1291 38.879 27.9332 38.9447 27.7408 39.0249L19.718 42.3677C18.1751 43.0107 17.1362 44.4643 17.0124 46.1126C17.0042 46.2225 17 46.3332 17 46.4447V93.5557C17 93.6672 17.0042 93.7779 17.0124 93.8878C17.1362 95.5362 18.175 96.9897 19.7179 97.6326L27.7408 100.976C27.9331 101.056 28.1291 101.121 28.3272 101.173C29.7139 101.534 31.2064 101.201 32.3139 100.252L34.1146 98.7085L54.6713 81.8545L89.8749 120.792C90.7736 121.69 91.8848 122.288 93.0667 122.559ZM96.4999 47.5602L69.13 70.0002L96.4999 92.4402V47.5602ZM30.25 54.843L43.9537 70.0002L30.25 85.1574V54.843Z" fill="url(#paint0_linear)"/>
</g>
</g>
<defs>
<filter id="filter0_d" x="9" y="9.27344" width="122" height="100.041" filterUnits="userSpaceOnUse" color-interpolation-filters="sRGB">
<feFlood flood-opacity="0" result="BackgroundImageFix"/>
<feColorMatrix in="SourceAlpha" type="matrix" values="0 0 0 0 0 0 0 0 0 0 0 0 0 0 0 0 0 0 127 0"/>
<feOffset/>
<feGaussianBlur stdDeviation="4"/>
<feColorMatrix type="matrix" values="0 0 0 0 0 0 0 0 0 0 0 0 0 0 0 0 0 0 0.25 0"/>
<feBlend mode="overlay" in2="BackgroundImageFix" result="effect1_dropShadow"/>
<feBlend mode="normal" in="SourceGraphic" in2="effect1_dropShadow" result="shape"/>
</filter>
<filter id="filter1_d" x="9" y="30.6855" width="122" height="100.041" filterUnits="userSpaceOnUse" color-interpolation-filters="sRGB">
<feFlood flood-opacity="0" result="BackgroundImageFix"/>
<feColorMatrix in="SourceAlpha" type="matrix" values="0 0 0 0 0 0 0 0 0 0 0 0 0 0 0 0 0 0 127 0"/>
<feOffset/>
<feGaussianBlur stdDeviation="4"/>
<feColorMatrix type="matrix" values="0 0 0 0 0 0 0 0 0 0 0 0 0 0 0 0 0 0 0.25 0"/>
<feBlend mode="overlay" in2="BackgroundImageFix" result="effect1_dropShadow"/>
<feBlend mode="normal" in="SourceGraphic" in2="effect1_dropShadow" result="shape"/>
</filter>
<filter id="filter2_d" x="81.875" y="9.27344" width="49.125" height="121.453" filterUnits="userSpaceOnUse" color-interpolation-filters="sRGB">
<feFlood flood-opacity="0" result="BackgroundImageFix"/>
<feColorMatrix in="SourceAlpha" type="matrix" values="0 0 0 0 0 0 0 0 0 0 0 0 0 0 0 0 0 0 127 0"/>
<feOffset/>
<feGaussianBlur stdDeviation="4"/>
<feColorMatrix type="matrix" values="0 0 0 0 0 0 0 0 0 0 0 0 0 0 0 0 0 0 0.25 0"/>
<feBlend mode="overlay" in2="BackgroundImageFix" result="effect1_dropShadow"/>
<feBlend mode="normal" in="SourceGraphic" in2="effect1_dropShadow" result="shape"/>
</filter>
<linearGradient id="paint0_linear" x1="70" y1="17.2734" x2="70" y2="122.727" gradientUnits="userSpaceOnUse">
<stop stop-color="white"/>
<stop offset="1" stop-color="white" stop-opacity="0"/>
</linearGradient>
</defs>
</svg>
