<svg width="140" height="140" viewBox="0 0 140 140" fill="none" xmlns="http://www.w3.org/2000/svg">
<mask id="mask0" mask-type="alpha" maskUnits="userSpaceOnUse" x="17" y="18" width="105" height="105">
<path fill-rule="evenodd" clip-rule="evenodd" d="M92.3491 122.564C93.7635 122.889 95.2801 122.743 96.6506 122.084L118.281 111.681C120.554 110.588 122 108.289 122 105.767V35.2347C122 32.7126 120.554 30.4136 118.282 29.3205L96.6506 18.9182C95.085 18.1652 93.3289 18.0819 91.7521 18.6051C90.806 18.919 89.9245 19.4512 89.1874 20.1883L54.316 58.7583L33.9531 42.0633L32.1694 40.5344C31.0724 39.5943 29.5938 39.2644 28.2203 39.6221C28.0241 39.6732 27.83 39.7383 27.6395 39.8177L19.6923 43.129C18.164 43.766 17.1349 45.2059 17.0123 46.8386C17.0041 46.9474 17 47.0571 17 47.1675V93.8342C17 93.9445 17.0041 94.0543 17.0123 94.1631C17.1349 95.7959 18.1639 97.2358 19.6923 97.8726L27.6395 101.184C27.83 101.263 28.0241 101.328 28.2203 101.38C29.5939 101.737 31.0724 101.408 32.1694 100.467L33.9531 98.9383L54.3159 82.2433L89.1874 120.813C90.0776 121.703 91.1783 122.295 92.3491 122.564ZM95.7499 48.2725L68.6382 70.5008L95.7499 92.7291V48.2725ZM30.125 55.4866L43.6995 70.5008L30.125 85.515V55.4866Z" fill="white"/>
</mask>
<g mask="url(#mask0)">
<path d="M31.2187 42.0067C32.0027 41.4951 33.0719 41.4331 33.9531 42.0622L32.1694 40.5327C31.8767 40.2817 31.5563 40.0745 31.2187 39.9121V42.0067Z" fill="#6C37A9"/>
<path d="M20.8061 51.9367C19.4612 50.4573 17 51.4088 17 53.4082V87.5913C17 89.5907 19.4612 90.5422 20.8061 89.0627L30.125 78.8118V62.1877L20.8061 51.9367Z" fill="#6C37A9"/>
<path d="M31.2187 98.9917V101.086C31.5563 100.924 31.8767 100.717 32.1694 100.466L33.9531 98.9372C33.0719 99.5664 32.0027 99.5033 31.2187 98.9917Z" fill="#6C37A9"/>
<path d="M81.2845 28.9272C83.2989 26.6992 86.9999 28.124 86.9999 31.1276V55.4453L64.6368 73.7806L50.9084 62.5248L81.2845 28.9272Z" fill="#793EBE"/>
<path d="M40.7324 73.7806L21.4006 95.1621C19.8497 96.8786 17 95.7806 17 93.4681V93.8323C17 95.599 18.0617 97.1916 19.6927 97.8709L27.6395 101.182C28.3562 101.481 29.1231 101.578 29.8644 101.485C30.7007 101.381 31.505 101.035 32.1694 100.465L33.9531 98.9369L50.9084 85.0353L40.7324 73.7806Z" fill="#793EBE"/>
<path d="M17 47.1665C17 45.4009 18.0617 43.8073 19.6927 43.1279L27.6395 39.8168C29.1637 39.1823 30.9154 39.459 32.1694 40.5335L33.9531 42.063L86.9999 85.5545V109.872C86.9999 112.875 83.2991 114.3 81.2847 112.072L21.4006 45.8367C19.8497 44.1213 17 45.2182 17 47.5318V47.1665Z" fill="#854CC7"/>
<path d="M96.6507 122.083C94.1457 123.288 91.153 122.779 89.1875 120.813C91.6092 123.235 95.75 121.52 95.75 118.095V22.9066C95.75 19.4818 91.6092 17.7666 89.1875 20.1883C91.153 18.2228 94.1457 17.7135 96.6507 18.9182L118.282 29.3205C120.555 30.4136 122 32.7126 122 35.2347V105.767C122 108.289 120.555 110.588 118.282 111.681L96.6507 122.083Z" fill="#9B60E1"/>
</g>
</svg>
