<svg xmlns="http://www.w3.org/2000/svg" viewBox="0 0 72 72"><title>BrandLiveShare</title><path d="M31.545,64.763a17.215,17.215,0,0,1,16-23.327,15.911,15.911,0,0,1,6.914,1.523,16.736,16.736,0,0,1,7.292,6.284V20.012a6.566,6.566,0,0,0-6.535-6.57H8.911a6.566,6.566,0,0,0-6.535,6.57V60.574A6.906,6.906,0,0,0,4.27,65.24,6.649,6.649,0,0,0,5.217,66l.568.286a6.894,6.894,0,0,0,3.126.762h23.77A8.6,8.6,0,0,1,31.545,64.763Z" fill="#9080cf"/><path d="M8.911,12.3A7.66,7.66,0,0,0,1.24,20.012V60.574A7.768,7.768,0,0,0,6.638,68l2.651.762L7.964,66.192a4.906,4.906,0,0,1-.569-2.38V23.345a5.309,5.309,0,0,1,5.3-5.332h50L53.989,12.4H8.911Z" fill="#c7b8ff"/><path d="M54.273,11.823H9.858A9.119,9.119,0,0,0,.766,20.964v39.61a8.231,8.231,0,0,0,2.368,5.808A14,14,0,0,0,4.365,67.43a4.8,4.8,0,0,0,1.7.856,9.05,9.05,0,0,0,3.126.572H30.313a2.654,2.654,0,0,0,2.652-2.666v-.286c0-.286-.1-.571-.1-.762a17.45,17.45,0,0,1,.569-12A16.763,16.763,0,0,1,55.5,44.673a15.158,15.158,0,0,1,5.114,3.618,1.741,1.741,0,0,0,1.137.476,1.665,1.665,0,0,0,1.61-1.619V20.964A9.12,9.12,0,0,0,54.273,11.823Zm2.463,29.8A19.759,19.759,0,0,0,30.6,51.719a19.32,19.32,0,0,0-.853,13.806H8.911a5.111,5.111,0,0,1-2.368-.571c-.095-.191-.189-.191-.379-.286-.284-.19-.473-.381-.758-.571a4.9,4.9,0,0,1-1.42-3.523V20.964a5.755,5.755,0,0,1,5.777-5.808H54.179a5.756,5.756,0,0,1,5.777,5.808V43.721A11.119,11.119,0,0,0,56.736,41.626Z" fill="#282828"/><path d="M48.591,68.953A8.855,8.855,0,1,0,39.784,60.1,8.832,8.832,0,0,0,48.591,68.953Z" fill="#9080cf"/><path d="M43.288,61.336a9.816,9.816,0,0,1,7.955-9.712,8.642,8.642,0,0,0-2.652-.476A8.875,8.875,0,0,0,39.784,60,8.776,8.776,0,0,0,46.6,68.572,9.52,9.52,0,0,1,43.288,61.336Z" fill="#c7b8ff"/><path d="M48.686,48.2A11.712,11.712,0,1,0,60.429,60,11.834,11.834,0,0,0,48.686,48.2Zm0,20.757a8.95,8.95,0,1,1,8.9-8.95A8.915,8.915,0,0,1,48.686,68.953Z" fill="#282828"/><path d="M48.686,71.905A11.9,11.9,0,1,1,60.524,60,11.874,11.874,0,0,1,48.686,71.905Zm0-23.518A11.616,11.616,0,1,0,60.24,60,11.51,11.51,0,0,0,48.686,48.387Zm0,20.662a9.046,9.046,0,1,1,9-9.046A9.079,9.079,0,0,1,48.686,69.049Zm0-17.9A8.855,8.855,0,1,0,57.493,60,8.875,8.875,0,0,0,48.686,51.148Z" fill="#282828"/><path d="M48.686,71.81A11.9,11.9,0,1,1,60.524,60,11.875,11.875,0,0,1,48.686,71.81Zm0-23.519A11.617,11.617,0,1,0,60.334,60,11.632,11.632,0,0,0,48.686,48.291Zm0,20.757a9.046,9.046,0,1,1,9-9.045A9.078,9.078,0,0,1,48.686,69.048Zm0-17.9A8.855,8.855,0,1,0,57.493,60,8.875,8.875,0,0,0,48.686,51.148Z" fill="#282828"/><path d="M48.686,72a12,12,0,0,1,0-23.994,12,12,0,0,1,0,23.994Zm0-23.518A11.521,11.521,0,1,0,60.145,60,11.469,11.469,0,0,0,48.686,48.482Zm0,20.662A9.141,9.141,0,1,1,57.777,60,9.12,9.12,0,0,1,48.686,69.144Zm0-17.9A8.76,8.76,0,1,0,57.4,60,8.775,8.775,0,0,0,48.686,51.243Z" fill="#282828"/><path d="M70.751,16.013l-.473-.762c-.095-.095-.095-.19-.189-.19-.095-.1-.095-.191-.19-.191l-.189-.19-.284-.286-.095-.1c-.189-.095-.284-.191-.474-.286L45.939.493a3.981,3.981,0,0,0-4.735.666,3.6,3.6,0,0,0-1.042,2.857l.19,5.141c-5.209,2-16.763,7.522-23.771,20l-.189.285a5.419,5.419,0,0,1-.379.667,2.381,2.381,0,0,1-.379.666l-.189.286c-.1.286-.284.571-.379.857l-.1.095A48.5,48.5,0,0,0,10.71,48.862v.1c0,.38-.1.857-.1,1.237v6.38c0,.476.1,1.047.1,1.523a4.873,4.873,0,0,0,4.83,4.571,4.691,4.691,0,0,0,4.545-3.238c0-.095.095-.285.095-.38.095-.381.19-.763.284-1.143l.663-2.19c3.125-9.236,9-20.948,20.077-24.28l.095,2.38a4.891,4.891,0,0,0,4.83,4.666,5.392,5.392,0,0,0,2.936-.952L69.331,22.107a4.786,4.786,0,0,0,1.894-4.19A4.341,4.341,0,0,0,70.751,16.013Z" fill="#282828"/><path d="M14.119,57.908c-2.178-32.945,21.214-43.514,28.506-45.99A1.544,1.544,0,0,0,43.667,10.4l-.19-4.761A1.525,1.525,0,0,1,45.75,4.206l21.4,12.568a1.567,1.567,0,0,1,.189,2.571L47.076,34.77a1.537,1.537,0,0,1-2.462-1.142l-.19-4.571a1.5,1.5,0,0,0-1.8-1.428c-15.816,3.047-22.729,19.9-25.57,30.564A1.483,1.483,0,0,1,14.119,57.908Z" fill="#f3f3f3"/><path d="M18.665,53.052c-.663,1.809-1.136,3.618-1.61,5.237A1.543,1.543,0,0,1,14.025,58c-2.273-33.992,22.823-44.18,29.168-46.18a.522.522,0,0,0,.379-.571L43.383,3.92a.533.533,0,0,1,.852-.476L67.153,16.87a2.039,2.039,0,0,1,.474.381L48.875,6.3a.592.592,0,0,0-.852.476l.284,7.236a.641.641,0,0,1-.379.571C42.057,16.489,20.37,25.249,18.665,53.052Z" fill="#fff"/></svg>